<svg xmlns="http://www.w3.org/2000/svg" xmlns:xlink="http://www.w3.org/1999/xlink" width="500" zoomAndPan="magnify" viewBox="0 0 375 374.999991" height="500" preserveAspectRatio="xMidYMid meet" version="1.0"><defs><g/><clipPath id="id1"><path d="M 59.316406 59.316406 L 315.8125 59.316406 L 315.8125 315.8125 L 59.316406 315.8125 Z M 59.316406 59.316406 " clip-rule="nonzero"/></clipPath><clipPath id="id2"><path d="M 213.558594 145.351562 L 227.34375 145.351562 L 227.34375 182.230469 L 213.558594 182.230469 Z M 213.558594 145.351562 " clip-rule="nonzero"/></clipPath><clipPath id="id3"><path d="M 154 123.136719 L 221 123.136719 L 221 151 L 154 151 Z M 154 123.136719 " clip-rule="nonzero"/></clipPath><clipPath id="id4"><path d="M 216.457031 208.222656 L 227.34375 208.222656 L 227.34375 223.773438 L 216.457031 223.773438 Z M 216.457031 208.222656 " clip-rule="nonzero"/></clipPath><clipPath id="id5"><path d="M 189.460938 225.328125 L 190 225.328125 L 190 242.378906 L 189.460938 242.378906 Z M 189.460938 225.328125 " clip-rule="nonzero"/></clipPath></defs><rect x="-37.5" width="450" fill="#ffffff" y="-37.499999" height="449.999989" fill-opacity="1"/><rect x="-37.5" width="450" fill="#ffffff" y="-37.499999" height="449.999989" fill-opacity="1"/><rect x="-37.5" width="450" fill="#ffffff" y="-37.499999" height="449.999989" fill-opacity="1"/><rect x="-37.5" width="450" fill="#ffffff" y="-37.499999" height="449.999989" fill-opacity="1"/><g clip-path="url(#id1)"><path fill="#3e4040" d="M 315.832031 187.570312 C 315.832031 116.734375 258.40625 59.3125 187.570312 59.3125 C 116.738281 59.3125 59.316406 116.734375 59.316406 187.570312 C 59.316406 258.40625 116.738281 315.828125 187.570312 315.828125 C 258.40625 315.828125 315.832031 258.40625 315.832031 187.570312 " fill-opacity="1" fill-rule="nonzero"/></g><path fill="#ebdece" d="M 308.851562 187.570312 C 308.851562 120.589844 254.554688 66.292969 187.570312 66.292969 C 120.59375 66.292969 66.296875 120.589844 66.296875 187.570312 C 66.296875 254.550781 120.59375 308.847656 187.570312 308.847656 C 254.554688 308.847656 308.851562 254.550781 308.851562 187.570312 " fill-opacity="1" fill-rule="nonzero"/><path fill="#3e4040" d="M 272.492188 187.570312 C 272.492188 140.671875 234.472656 102.652344 187.570312 102.652344 C 140.671875 102.652344 102.652344 140.671875 102.652344 187.570312 C 102.652344 234.46875 140.671875 272.488281 187.570312 272.488281 C 234.472656 272.488281 272.492188 234.46875 272.492188 187.570312 " fill-opacity="1" fill-rule="nonzero"/><path fill="#f4f4f4" d="M 266.96875 187.570312 C 266.96875 143.722656 231.421875 108.171875 187.570312 108.171875 C 143.722656 108.171875 108.175781 143.722656 108.175781 187.570312 C 108.175781 231.421875 143.722656 266.96875 187.570312 266.96875 C 231.421875 266.96875 266.96875 231.421875 266.96875 187.570312 " fill-opacity="1" fill-rule="nonzero"/><g fill="#022135" fill-opacity="1"><g transform="translate(88.491785, 243.188818)"><g><path d="M 17.703125 4.9375 L 14.578125 7 L 8.046875 -2.953125 L 11.171875 -5.015625 Z M 17.703125 4.9375 "/></g></g></g><g fill="#022135" fill-opacity="1"><g transform="translate(100.037719, 260.046939)"><g><path d="M 23.953125 -8.203125 C 25.953125 -6.128906 25.847656 -4.023438 23.640625 -1.890625 L 10.4375 10.828125 L 7.046875 7.3125 L 12.5 2.046875 L 10.046875 -0.5 L 4.59375 4.765625 L 1.21875 1.265625 L 14.421875 -11.453125 C 16.628906 -13.585938 18.734375 -13.617188 20.734375 -11.546875 Z M 12.765625 -3.109375 L 15.21875 -0.5625 L 20.671875 -5.8125 C 20.804688 -5.945312 20.878906 -6.109375 20.890625 -6.296875 C 20.898438 -6.484375 20.84375 -6.644531 20.71875 -6.78125 L 19.1875 -8.375 C 19.0625 -8.507812 18.898438 -8.570312 18.703125 -8.5625 C 18.515625 -8.5625 18.351562 -8.492188 18.21875 -8.359375 Z M 12.765625 -3.109375 "/></g></g></g><g fill="#022135" fill-opacity="1"><g transform="translate(115.391304, 275.292891)"><g><path d="M 10.75 -3.71875 L 5.40625 3.828125 L 1.421875 1.015625 L 14.484375 -17.40625 L 21.578125 -12.390625 C 23.929688 -10.710938 24.222656 -8.625 22.453125 -6.125 L 20.9375 -3.984375 C 19.851562 -2.460938 18.625 -1.878906 17.25 -2.234375 C 17.957031 -1.222656 17.878906 -0.113281 17.015625 1.09375 L 11.84375 8.390625 L 7.859375 5.578125 L 12.796875 -1.390625 C 13.066406 -1.773438 13.019531 -2.097656 12.65625 -2.359375 Z M 16.546875 -11.890625 L 12.734375 -6.515625 L 14.84375 -5.015625 C 15 -4.898438 15.171875 -4.863281 15.359375 -4.90625 C 15.546875 -4.945312 15.691406 -5.039062 15.796875 -5.1875 L 18.796875 -9.421875 C 18.910156 -9.578125 18.953125 -9.75 18.921875 -9.9375 C 18.898438 -10.125 18.8125 -10.273438 18.65625 -10.390625 Z M 16.546875 -11.890625 "/></g></g></g><g fill="#022135" fill-opacity="1"><g transform="translate(132.638604, 287.016266)"><g><path d="M 19.328125 -16.34375 C 21.953125 -15.132812 22.625 -13.132812 21.34375 -10.34375 L 15.453125 2.421875 C 14.171875 5.210938 12.21875 6.003906 9.59375 4.796875 L 9.53125 4.765625 L 8.796875 6.359375 C 8.648438 6.679688 8.734375 6.914062 9.046875 7.0625 L 10.0625 7.53125 L 8.640625 10.625 L 6.78125 9.765625 C 5.738281 9.285156 5.066406 8.597656 4.765625 7.703125 C 4.460938 6.816406 4.492188 5.976562 4.859375 5.1875 L 5.84375 3.0625 L 5.375 2.859375 C 2.757812 1.648438 2.09375 -0.347656 3.375 -3.140625 L 9.265625 -15.90625 C 10.546875 -18.695312 12.492188 -19.488281 15.109375 -18.28125 Z M 13.921875 -14.421875 L 7.5625 -0.59375 C 7.488281 -0.425781 7.476562 -0.25 7.53125 -0.0625 C 7.59375 0.125 7.707031 0.253906 7.875 0.328125 L 9.875 1.25 C 10.050781 1.332031 10.222656 1.332031 10.390625 1.25 C 10.566406 1.175781 10.691406 1.054688 10.765625 0.890625 L 17.125 -12.9375 C 17.207031 -13.101562 17.222656 -13.273438 17.171875 -13.453125 C 17.117188 -13.640625 17.003906 -13.773438 16.828125 -13.859375 L 14.828125 -14.78125 C 14.660156 -14.851562 14.488281 -14.851562 14.3125 -14.78125 C 14.132812 -14.707031 14.003906 -14.585938 13.921875 -14.421875 Z M 13.921875 -14.421875 "/></g></g></g><g fill="#022135" fill-opacity="1"><g transform="translate(152.150478, 295.504615)"><g><path d="M 15 -19.515625 L 19.75 -18.328125 L 15.296875 -0.5625 C 14.554688 2.414062 12.78125 3.550781 9.96875 2.84375 L 5.765625 1.796875 C 2.972656 1.085938 1.945312 -0.753906 2.6875 -3.734375 L 7.140625 -21.5 L 11.875 -20.296875 L 7.328125 -2.125 C 7.273438 -1.9375 7.296875 -1.757812 7.390625 -1.59375 C 7.492188 -1.425781 7.632812 -1.320312 7.8125 -1.28125 L 9.625 -0.828125 C 9.8125 -0.773438 9.984375 -0.800781 10.140625 -0.90625 C 10.296875 -1.007812 10.398438 -1.15625 10.453125 -1.34375 Z M 15 -19.515625 "/></g></g></g><g fill="#022135" fill-opacity="1"><g transform="translate(172.443378, 300.058407)"><g><path d="M 6.921875 -3.53125 L 12.328125 -3.109375 L 12.015625 0.921875 L 1.75 0.140625 L 3.46875 -22.375 L 13.734375 -21.59375 L 13.4375 -17.640625 L 8.03125 -18.0625 L 7.625 -12.765625 L 12.671875 -12.375 L 12.375 -8.53125 L 7.328125 -8.921875 Z M 6.921875 -3.53125 "/></g></g></g><g fill="#022135" fill-opacity="1"><g transform="translate(190.082618, 301.177472)"><g><path d="M 13.234375 -19.6875 L 14.578125 -5.6875 C 14.867188 -2.625 13.578125 -0.957031 10.703125 -0.6875 L 6.078125 -0.234375 C 3.203125 0.0351562 1.617188 -1.359375 1.328125 -4.421875 L -0.015625 -18.421875 C -0.304688 -21.472656 0.984375 -23.132812 3.859375 -23.40625 L 8.484375 -23.859375 C 11.359375 -24.128906 12.941406 -22.738281 13.234375 -19.6875 Z M 9.75 -4.65625 L 8.296875 -19.796875 C 8.285156 -19.984375 8.207031 -20.140625 8.0625 -20.265625 C 7.925781 -20.398438 7.765625 -20.457031 7.578125 -20.4375 L 5.390625 -20.234375 C 5.203125 -20.210938 5.050781 -20.125 4.9375 -19.96875 C 4.820312 -19.820312 4.769531 -19.65625 4.78125 -19.46875 L 6.234375 -4.328125 C 6.253906 -4.140625 6.335938 -3.976562 6.484375 -3.84375 C 6.628906 -3.71875 6.796875 -3.664062 6.984375 -3.6875 L 9.171875 -3.890625 C 9.359375 -3.910156 9.503906 -3.992188 9.609375 -4.140625 C 9.722656 -4.296875 9.769531 -4.46875 9.75 -4.65625 Z M 10.1875 -29.03125 L 5.984375 -25.046875 L 2.546875 -24.71875 L 5.078125 -28.546875 Z M 10.1875 -29.03125 "/></g></g></g><g fill="#022135" fill-opacity="1"><g transform="translate(211.310893, 298.570494)"><g><path d="M 5.3125 -5.71875 L 10.46875 -7.125 L 11.546875 -3.140625 L 1.6875 -0.453125 L -4.21875 -22.25 L 0.484375 -23.53125 Z M 5.3125 -5.71875 "/></g></g></g><g fill="#022135" fill-opacity="1"><g transform="translate(227.713165, 293.917711)"><g><path d="M 5.953125 -22.953125 L 11.859375 -10.203125 C 13.148438 -7.410156 12.484375 -5.410156 9.859375 -4.203125 L 5.65625 -2.25 C 3.039062 -1.03125 1.085938 -1.816406 -0.203125 -4.609375 L -6.109375 -17.359375 C -7.398438 -20.148438 -6.738281 -22.15625 -4.125 -23.375 L 0.078125 -25.328125 C 2.703125 -26.535156 4.660156 -25.742188 5.953125 -22.953125 Z M 7.65625 -7.625 L 1.265625 -21.4375 C 1.179688 -21.601562 1.050781 -21.722656 0.875 -21.796875 C 0.707031 -21.878906 0.539062 -21.882812 0.375 -21.8125 L -1.625 -20.875 C -1.800781 -20.800781 -1.914062 -20.671875 -1.96875 -20.484375 C -2.03125 -20.296875 -2.019531 -20.117188 -1.9375 -19.953125 L 4.453125 -6.140625 C 4.535156 -5.972656 4.660156 -5.851562 4.828125 -5.78125 C 5.003906 -5.707031 5.179688 -5.707031 5.359375 -5.78125 L 7.359375 -6.71875 C 7.523438 -6.789062 7.632812 -6.914062 7.6875 -7.09375 C 7.75 -7.28125 7.738281 -7.457031 7.65625 -7.625 Z M 7.65625 -7.625 "/></g></g></g><g fill="#022135" fill-opacity="1"><g transform="translate(247.077997, 284.402707)"><g><path d="M 1.59375 -12.15625 L -0.484375 -15.078125 L 4.765625 -18.8125 L 9.578125 -12.046875 C 11.359375 -9.546875 11.078125 -7.460938 8.734375 -5.796875 L 5.15625 -3.25 C 2.800781 -1.570312 0.734375 -1.984375 -1.046875 -4.484375 L -9.21875 -15.9375 C -11 -18.445312 -10.710938 -20.539062 -8.359375 -22.21875 L -4.78125 -24.765625 C -2.4375 -26.429688 -0.375 -26.007812 1.40625 -23.5 L 2.640625 -21.78125 L -1.140625 -19.09375 L -2.71875 -21.296875 C -2.820312 -21.453125 -2.960938 -21.550781 -3.140625 -21.59375 C -3.328125 -21.632812 -3.5 -21.601562 -3.65625 -21.5 L -5.453125 -20.21875 C -5.597656 -20.101562 -5.679688 -19.953125 -5.703125 -19.765625 C -5.734375 -19.578125 -5.695312 -19.40625 -5.59375 -19.25 L 3.25 -6.859375 C 3.351562 -6.703125 3.5 -6.601562 3.6875 -6.5625 C 3.882812 -6.519531 4.054688 -6.554688 4.203125 -6.671875 L 6 -7.953125 C 6.15625 -8.054688 6.238281 -8.203125 6.25 -8.390625 C 6.269531 -8.578125 6.226562 -8.75 6.125 -8.90625 L 3.0625 -13.203125 Z M 1.59375 -12.15625 "/></g></g></g><g fill="#022135" fill-opacity="1"><g transform="translate(263.499146, 272.242363)"><g><path d="M -9.078125 -23.640625 C -7.078125 -25.710938 -4.972656 -25.679688 -2.765625 -23.546875 L 10.4375 -10.828125 L 7.046875 -7.3125 L 1.59375 -12.578125 L -0.859375 -10.03125 L 4.59375 -4.765625 L 1.21875 -1.265625 L -11.984375 -13.984375 C -14.191406 -16.117188 -14.296875 -18.222656 -12.296875 -20.296875 Z M -3.578125 -12.640625 L -1.125 -15.1875 L -6.578125 -20.4375 C -6.710938 -20.570312 -6.875 -20.644531 -7.0625 -20.65625 C -7.25 -20.664062 -7.40625 -20.601562 -7.53125 -20.46875 L -9.0625 -18.875 C -9.1875 -18.738281 -9.242188 -18.570312 -9.234375 -18.375 C -9.234375 -18.1875 -9.164062 -18.023438 -9.03125 -17.890625 Z M -3.578125 -12.640625 "/></g></g></g><g fill="#022135" fill-opacity="1"><g transform="translate(278.13916, 256.342485)"><g><path d="M -2.484375 -18.21875 L 0.640625 -16.15625 L -5.890625 -6.203125 L -9.015625 -8.265625 Z M -2.484375 -18.21875 "/></g></g></g><g fill="#022135" fill-opacity="1"><g transform="translate(97.230044, 174.116136)"><g><path d="M -1.109375 -10.75 L -4.484375 -11.609375 L -3.34375 -16.109375 L -0.515625 -15.390625 C 2.460938 -14.640625 3.597656 -12.867188 2.890625 -10.078125 L 1.8125 -5.8125 C 1.101562 -3.019531 -0.738281 -2 -3.71875 -2.75 L -17.34375 -6.1875 C -20.320312 -6.945312 -21.457031 -8.722656 -20.75 -11.515625 L -19.671875 -15.78125 C -18.960938 -18.570312 -17.117188 -19.585938 -14.140625 -18.828125 L -12.078125 -18.3125 L -13.21875 -13.8125 L -15.859375 -14.484375 C -16.046875 -14.523438 -16.222656 -14.503906 -16.390625 -14.421875 C -16.554688 -14.335938 -16.660156 -14.203125 -16.703125 -14.015625 L -17.25 -11.890625 C -17.289062 -11.703125 -17.257812 -11.523438 -17.15625 -11.359375 C -17.050781 -11.203125 -16.90625 -11.101562 -16.71875 -11.0625 L -1.96875 -7.328125 C -1.78125 -7.285156 -1.601562 -7.304688 -1.4375 -7.390625 C -1.269531 -7.484375 -1.164062 -7.625 -1.125 -7.8125 L -0.578125 -9.9375 C -0.535156 -10.125 -0.566406 -10.296875 -0.671875 -10.453125 C -0.773438 -10.609375 -0.921875 -10.707031 -1.109375 -10.75 Z M -1.109375 -10.75 "/></g></g></g><g fill="#022135" fill-opacity="1"><g transform="translate(101.348105, 158.012506)"><g><path d="M -16.421875 -18.34375 L -14.375 -22.78125 L 2.265625 -15.140625 C 5.054688 -13.859375 5.847656 -11.898438 4.640625 -9.265625 L 2.828125 -5.34375 C 1.628906 -2.71875 -0.363281 -2.046875 -3.15625 -3.328125 L -19.796875 -10.96875 L -17.765625 -15.40625 L -0.75 -7.59375 C -0.570312 -7.507812 -0.390625 -7.5 -0.203125 -7.5625 C -0.0234375 -7.625 0.0976562 -7.742188 0.171875 -7.921875 L 0.953125 -9.625 C 1.035156 -9.789062 1.039062 -9.960938 0.96875 -10.140625 C 0.894531 -10.316406 0.769531 -10.445312 0.59375 -10.53125 Z M -16.421875 -18.34375 "/></g></g></g><g fill="#022135" fill-opacity="1"><g transform="translate(108.424237, 142.673657)"><g><path d="M -12.46875 -22.03125 C -10.800781 -24.382812 -8.71875 -24.671875 -6.21875 -22.890625 L 8.71875 -12.265625 L 5.890625 -8.28125 L -0.28125 -12.671875 L -2.328125 -9.78125 L 3.84375 -5.390625 L 1.015625 -1.421875 L -13.921875 -12.046875 C -16.421875 -13.828125 -16.832031 -15.894531 -15.15625 -18.25 Z M -5.40625 -11.96875 L -3.359375 -14.859375 L -9.53125 -19.25 C -9.675781 -19.363281 -9.84375 -19.40625 -10.03125 -19.375 C -10.21875 -19.351562 -10.363281 -19.265625 -10.46875 -19.109375 L -11.75 -17.3125 C -11.863281 -17.164062 -11.898438 -17 -11.859375 -16.8125 C -11.816406 -16.625 -11.722656 -16.472656 -11.578125 -16.359375 Z M -5.40625 -11.96875 "/></g></g></g><g fill="#022135" fill-opacity="1"><g transform="translate(118.605666, 128.456895)"><g><path d="M -7.8125 -23.734375 C -5.726562 -25.722656 -3.628906 -25.609375 -1.515625 -23.390625 L 7.703125 -13.71875 C 9.828125 -11.488281 9.847656 -9.378906 7.765625 -7.390625 L 1.265625 -1.203125 L -14.3125 -17.546875 Z M 4.546875 -9.9375 L -5.46875 -20.453125 C -5.59375 -20.585938 -5.75 -20.660156 -5.9375 -20.671875 C -6.125 -20.679688 -6.285156 -20.625 -6.421875 -20.5 L -8.5 -18.515625 L 2.484375 -7 L 4.5625 -8.984375 C 4.695312 -9.109375 4.757812 -9.265625 4.75 -9.453125 C 4.75 -9.640625 4.679688 -9.800781 4.546875 -9.9375 Z M 4.546875 -9.9375 "/></g></g></g><g fill="#022135" fill-opacity="1"><g transform="translate(131.546277, 116.432217)"><g><path d="M 3.25 -7.046875 L 7.765625 -10.046875 L 10.015625 -6.6875 L 1.453125 -0.96875 L -11.09375 -19.734375 L -2.53125 -25.453125 L -0.328125 -22.15625 L -4.84375 -19.15625 L -1.890625 -14.734375 L 2.328125 -17.546875 L 4.46875 -14.359375 L 0.25 -11.546875 Z M 3.25 -7.046875 "/></g></g></g><g fill="#022135" fill-opacity="1"><g transform="translate(143.086634, 108.645144)"><g><path d="M 2.265625 -11.140625 L 6.046875 -2.703125 L 1.59375 -0.71875 L -7.625 -21.328125 L 0.3125 -24.875 C 2.945312 -26.050781 4.890625 -25.242188 6.140625 -22.453125 L 7.203125 -20.046875 C 7.972656 -18.347656 7.859375 -16.992188 6.859375 -15.984375 C 8.078125 -16.078125 8.988281 -15.441406 9.59375 -14.078125 L 13.25 -5.921875 L 8.796875 -3.9375 L 5.3125 -11.734375 C 5.113281 -12.160156 4.8125 -12.28125 4.40625 -12.09375 Z M -1.828125 -20.28125 L 0.875 -14.265625 L 3.25 -15.328125 C 3.414062 -15.398438 3.523438 -15.523438 3.578125 -15.703125 C 3.640625 -15.890625 3.628906 -16.066406 3.546875 -16.234375 L 1.4375 -20.96875 C 1.351562 -21.144531 1.222656 -21.269531 1.046875 -21.34375 C 0.878906 -21.414062 0.710938 -21.414062 0.546875 -21.34375 Z M -1.828125 -20.28125 "/></g></g></g><g fill="#022135" fill-opacity="1"><g transform="translate(158.435683, 101.83448)"><g><path d="M 14.296875 -3.453125 L 9.53125 -2.3125 L 5.125 -20.53125 C 5.082031 -20.71875 4.984375 -20.859375 4.828125 -20.953125 C 4.671875 -21.054688 4.503906 -21.082031 4.328125 -21.03125 L 2.5 -20.59375 C 2.3125 -20.550781 2.171875 -20.445312 2.078125 -20.28125 C 1.984375 -20.125 1.957031 -19.953125 2 -19.765625 L 6.40625 -1.546875 L 1.65625 -0.40625 L -2.65625 -18.21875 C -3.375 -21.207031 -2.332031 -23.039062 0.46875 -23.71875 L 4.671875 -24.734375 C 7.492188 -25.410156 9.265625 -24.253906 9.984375 -21.265625 Z M 14.296875 -3.453125 "/></g></g></g><g fill="#022135" fill-opacity="1"><g transform="translate(174.798172, 97.905213)"><g><path d="M 14.109375 -19.0625 L 14.8125 -5.015625 C 14.96875 -1.941406 13.601562 -0.332031 10.71875 -0.1875 L 6.09375 0.046875 C 3.207031 0.179688 1.6875 -1.285156 1.53125 -4.359375 L 0.828125 -18.40625 C 0.679688 -21.46875 2.050781 -23.066406 4.9375 -23.203125 L 9.5625 -23.4375 C 12.445312 -23.582031 13.960938 -22.125 14.109375 -19.0625 Z M 9.953125 -4.203125 L 9.203125 -19.390625 C 9.191406 -19.578125 9.117188 -19.738281 8.984375 -19.875 C 8.847656 -20.007812 8.6875 -20.070312 8.5 -20.0625 L 6.296875 -19.953125 C 6.109375 -19.941406 5.953125 -19.863281 5.828125 -19.71875 C 5.710938 -19.570312 5.660156 -19.40625 5.671875 -19.21875 L 6.421875 -4.03125 C 6.429688 -3.84375 6.503906 -3.679688 6.640625 -3.546875 C 6.773438 -3.410156 6.9375 -3.347656 7.125 -3.359375 L 9.328125 -3.46875 C 9.515625 -3.476562 9.664062 -3.554688 9.78125 -3.703125 C 9.90625 -3.847656 9.960938 -4.015625 9.953125 -4.203125 Z M 9.953125 -4.203125 "/></g></g></g><g fill="#022135" fill-opacity="1"><g transform="translate(192.277509, 97.130052)"><g><path d="M 16.421875 -14.5625 L 11.8125 -15.1875 L 12.046875 -16.953125 C 12.066406 -17.128906 12.023438 -17.296875 11.921875 -17.453125 C 11.816406 -17.617188 11.671875 -17.710938 11.484375 -17.734375 L 9.578125 -18 C 9.390625 -18.019531 9.222656 -17.96875 9.078125 -17.84375 C 8.929688 -17.726562 8.847656 -17.582031 8.828125 -17.40625 L 8.28125 -13.421875 C 8.257812 -13.242188 8.300781 -13.070312 8.40625 -12.90625 C 8.507812 -12.75 8.65625 -12.660156 8.84375 -12.640625 L 11.953125 -12.21875 C 14.796875 -11.769531 16.015625 -10.050781 15.609375 -7.0625 L 14.953125 -2.25 C 14.535156 0.789062 12.898438 2.113281 10.046875 1.71875 L 5.96875 1.171875 C 3.113281 0.773438 1.894531 -0.941406 2.3125 -3.984375 L 2.625 -6.296875 L 7.21875 -5.671875 L 6.875 -3.1875 C 6.851562 -3.007812 6.894531 -2.835938 7 -2.671875 C 7.101562 -2.515625 7.25 -2.425781 7.4375 -2.40625 L 9.59375 -2.109375 C 9.769531 -2.085938 9.929688 -2.132812 10.078125 -2.25 C 10.222656 -2.375 10.304688 -2.523438 10.328125 -2.703125 L 10.9375 -7.09375 C 10.957031 -7.28125 10.914062 -7.453125 10.8125 -7.609375 C 10.707031 -7.773438 10.566406 -7.867188 10.390625 -7.890625 L 7.265625 -8.3125 C 4.410156 -8.707031 3.191406 -10.425781 3.609375 -13.46875 L 4.21875 -17.921875 C 4.632812 -20.960938 6.269531 -22.285156 9.125 -21.890625 L 12.96875 -21.375 C 15.832031 -20.976562 17.054688 -19.257812 16.640625 -16.21875 Z M 16.421875 -14.5625 "/></g></g></g><g fill="#022135" fill-opacity="1"><g transform="translate(217.047006, 101.762799)"><g><path d="M 18.9375 -16.296875 C 21.582031 -15.128906 22.285156 -13.148438 21.046875 -10.359375 L 15.625 1.875 C 14.382812 4.6875 12.441406 5.507812 9.796875 4.34375 L 1.59375 0.703125 L 10.734375 -19.9375 Z M 10.921875 0.40625 L 16.796875 -12.859375 C 16.867188 -13.035156 16.875 -13.210938 16.8125 -13.390625 C 16.757812 -13.566406 16.648438 -13.691406 16.484375 -13.765625 L 13.859375 -14.921875 L 7.421875 -0.375 L 10.046875 0.78125 C 10.210938 0.851562 10.378906 0.851562 10.546875 0.78125 C 10.722656 0.707031 10.847656 0.582031 10.921875 0.40625 Z M 10.921875 0.40625 "/></g></g></g><g fill="#022135" fill-opacity="1"><g transform="translate(233.106424, 109.120452)"><g><path d="M 7.765625 0.328125 L 12.265625 3.328125 L 10.015625 6.6875 L 1.453125 0.96875 L 14 -17.8125 L 22.5625 -12.09375 L 20.359375 -8.78125 L 15.859375 -11.78125 L 12.90625 -7.375 L 17.109375 -4.578125 L 14.96875 -1.375 L 10.765625 -4.171875 Z M 7.765625 0.328125 "/></g></g></g><g fill="#022135" fill-opacity="1"><g transform="translate(251.245752, 122.476725)"><g><path d="M 23.453125 -7.46875 L 26.671875 -3.796875 L 12.890625 8.25 C 10.566406 10.269531 8.453125 10.191406 6.546875 8.015625 L 3.703125 4.765625 C 1.804688 2.585938 2.019531 0.488281 4.34375 -1.53125 L 18.125 -13.578125 L 21.34375 -9.890625 L 7.234375 2.4375 C 7.097656 2.5625 7.015625 2.71875 6.984375 2.90625 C 6.960938 3.101562 7.015625 3.269531 7.140625 3.40625 L 8.375 4.8125 C 8.5 4.957031 8.65625 5.03125 8.84375 5.03125 C 9.039062 5.039062 9.207031 4.984375 9.34375 4.859375 Z M 23.453125 -7.46875 "/></g></g></g><g fill="#022135" fill-opacity="1"><g transform="translate(262.337235, 135.260657)"><g><path d="M 7.484375 12.65625 L 5 8.453125 L 21.140625 -1.09375 C 21.296875 -1.1875 21.398438 -1.320312 21.453125 -1.5 C 21.503906 -1.6875 21.484375 -1.859375 21.390625 -2.015625 L 20.4375 -3.640625 C 20.34375 -3.796875 20.203125 -3.894531 20.015625 -3.9375 C 19.828125 -3.988281 19.65625 -3.96875 19.5 -3.875 L 3.359375 5.671875 L 0.859375 1.46875 L 16.640625 -7.859375 C 19.285156 -9.421875 21.34375 -8.960938 22.8125 -6.484375 L 25.015625 -2.75 C 26.492188 -0.257812 25.910156 1.765625 23.265625 3.328125 Z M 7.484375 12.65625 "/></g></g></g><g fill="#022135" fill-opacity="1"><g transform="translate(270.88278, 149.754082)"><g><path d="M 25.21875 2.28125 C 26.195312 5 25.238281 6.882812 22.34375 7.9375 L 5.109375 14.15625 L 3.453125 9.546875 L 10.578125 6.96875 L 9.375 3.65625 L 2.25 6.234375 L 0.59375 1.640625 L 17.828125 -4.578125 C 20.722656 -5.628906 22.660156 -4.796875 23.640625 -2.078125 Z M 12.921875 2.375 L 14.125 5.6875 L 21.25 3.125 C 21.425781 3.0625 21.554688 2.945312 21.640625 2.78125 C 21.734375 2.613281 21.75 2.441406 21.6875 2.265625 L 20.9375 0.1875 C 20.875 0.0078125 20.753906 -0.109375 20.578125 -0.171875 C 20.398438 -0.242188 20.222656 -0.25 20.046875 -0.1875 Z M 12.921875 2.375 "/></g></g></g><g fill="#022135" fill-opacity="1"><g transform="translate(276.581827, 166.796119)"><g/></g></g><path fill="#3f4040" d="M 204.480469 162.40625 L 204.449219 162.40625 L 204.449219 179.199219 C 204.449219 187.132812 198.699219 193.585938 191.632812 193.585938 L 188.800781 193.585938 L 188.800781 199.421875 L 196.703125 199.421875 C 199.113281 199.421875 201.085938 201.539062 201.085938 204.121094 L 201.085938 205.375 C 201.085938 205.835938 200.800781 206.207031 200.453125 206.207031 L 174.898438 206.207031 C 174.550781 206.207031 174.265625 205.835938 174.265625 205.375 L 174.265625 204.121094 C 174.265625 201.539062 176.238281 199.421875 178.648438 199.421875 L 186.550781 199.421875 L 186.550781 193.585938 L 183.71875 193.585938 C 176.648438 193.585938 170.902344 187.132812 170.902344 179.199219 L 170.902344 160.757812 L 173.132812 160.757812 L 173.132812 160.761719 C 173.574219 160.773438 173.929688 161.175781 173.929688 161.671875 C 173.929688 162.171875 173.574219 162.574219 173.132812 162.585938 L 173.132812 179.199219 C 173.132812 185.75 177.882812 191.078125 183.71875 191.078125 L 191.632812 191.078125 C 197.46875 191.078125 202.214844 185.75 202.214844 179.199219 L 202.214844 162.589844 C 202.214844 162.589844 202.210938 162.589844 202.210938 162.589844 C 201.757812 162.589844 201.390625 162.179688 201.390625 161.671875 C 201.390625 161.167969 201.757812 160.757812 202.210938 160.757812 C 202.210938 160.757812 202.214844 160.757812 202.214844 160.757812 L 204.558594 160.757812 C 204.644531 161.3125 204.683594 161.886719 204.480469 162.40625 " fill-opacity="1" fill-rule="nonzero"/><path fill="#3f4040" d="M 187.738281 171.097656 C 185.984375 171.097656 184.5625 169.683594 184.5625 167.933594 C 184.5625 166.1875 185.984375 164.773438 187.738281 164.773438 C 189.496094 164.773438 190.917969 166.1875 190.917969 167.933594 C 190.917969 169.683594 189.496094 171.097656 187.738281 171.097656 Z M 200.46875 160.769531 L 200.46875 160.257812 L 195.480469 160.257812 C 194.699219 160.257812 194.058594 159.621094 194.058594 158.84375 C 194.058594 158.0625 194.699219 157.425781 195.480469 157.425781 L 200.46875 157.425781 L 200.46875 155.292969 L 195.480469 155.292969 C 194.699219 155.292969 194.058594 154.65625 194.058594 153.878906 C 194.058594 153.097656 194.699219 152.460938 195.480469 152.460938 L 200.46875 152.460938 L 200.46875 150.328125 L 195.480469 150.328125 C 194.699219 150.328125 194.058594 149.691406 194.058594 148.914062 C 194.058594 148.132812 194.699219 147.496094 195.480469 147.496094 L 200.371094 147.496094 C 199.6875 141.972656 195.433594 137.683594 190.332031 137.683594 L 185.222656 137.683594 C 180.121094 137.683594 175.871094 141.972656 175.1875 147.496094 L 179.875 147.496094 C 180.65625 147.496094 181.296875 148.132812 181.296875 148.914062 C 181.296875 149.691406 180.65625 150.328125 179.875 150.328125 L 175.085938 150.328125 L 175.085938 152.460938 L 179.875 152.460938 C 180.65625 152.460938 181.296875 153.097656 181.296875 153.878906 C 181.296875 154.65625 180.65625 155.292969 179.875 155.292969 L 175.085938 155.292969 L 175.085938 157.425781 L 179.875 157.425781 C 180.65625 157.425781 181.296875 158.0625 181.296875 158.84375 C 181.296875 159.621094 180.65625 160.257812 179.875 160.257812 L 175.085938 160.257812 L 175.085938 160.765625 C 174.675781 160.816406 174.355469 161.199219 174.355469 161.671875 C 174.355469 162.148438 174.675781 162.53125 175.085938 162.582031 L 175.085938 177.875 C 175.085938 184.132812 179.648438 189.253906 185.222656 189.253906 L 190.332031 189.253906 C 195.90625 189.253906 200.46875 184.132812 200.46875 177.875 L 200.46875 162.578125 C 200.867188 162.515625 201.175781 162.136719 201.175781 161.671875 C 201.175781 161.210938 200.867188 160.832031 200.46875 160.769531 " fill-opacity="1" fill-rule="nonzero"/><g clip-path="url(#id2)"><path fill="#3f4040" d="M 219.71875 145.578125 L 222.238281 145.835938 C 223.9375 146.011719 225.167969 147.914062 224.980469 150.0625 L 224.820312 151.863281 C 226.394531 152.183594 227.503906 154.003906 227.324219 156.050781 L 225.835938 173 C 225.65625 175.046875 224.246094 176.609375 222.648438 176.605469 L 222.488281 178.402344 C 222.300781 180.554688 220.753906 182.171875 219.058594 181.996094 L 216.539062 181.738281 C 214.839844 181.5625 213.605469 179.660156 213.792969 177.511719 L 216.289062 149.167969 C 216.476562 147.019531 218.019531 145.402344 219.71875 145.578125 " fill-opacity="1" fill-rule="nonzero"/></g><path fill="#3f4040" d="M 155.8125 145.578125 L 153.292969 145.835938 C 151.59375 146.011719 150.359375 147.914062 150.546875 150.0625 L 150.707031 151.863281 C 149.136719 152.183594 148.023438 154.003906 148.203125 156.050781 L 149.695312 173 C 149.875 175.046875 151.28125 176.609375 152.882812 176.605469 L 153.042969 178.402344 C 153.230469 180.554688 154.773438 182.171875 156.46875 181.996094 L 158.992188 181.738281 C 160.6875 181.5625 161.921875 179.660156 161.734375 177.511719 L 159.242188 149.167969 C 159.054688 147.019531 157.507812 145.402344 155.8125 145.578125 " fill-opacity="1" fill-rule="nonzero"/><g clip-path="url(#id3)"><path fill="#3f4040" d="M 154.824219 150.101562 L 157.355469 150.101562 C 157.363281 150.101562 157.371094 150.105469 157.378906 150.105469 C 157.378906 150.105469 157.378906 150.105469 157.378906 150.101562 C 157.378906 136.429688 170.96875 125.347656 187.738281 125.347656 C 204.507812 125.347656 218.101562 136.429688 218.101562 150.101562 L 218.101562 150.105469 C 218.105469 150.105469 218.109375 150.101562 218.117188 150.101562 L 220.648438 150.101562 C 220.703125 150.101562 220.757812 150.105469 220.808594 150.109375 C 220.808594 150.105469 220.808594 150.105469 220.808594 150.101562 C 220.808594 135.210938 206.003906 123.140625 187.738281 123.140625 C 169.476562 123.140625 154.667969 135.210938 154.667969 150.101562 C 154.667969 150.105469 154.667969 150.105469 154.667969 150.109375 C 154.71875 150.105469 154.773438 150.101562 154.824219 150.101562 " fill-opacity="1" fill-rule="nonzero"/></g><path fill="#3f4040" d="M 154.019531 212.476562 C 154.019531 211.585938 153.777344 210.882812 153.292969 210.367188 C 152.804688 209.847656 152.207031 209.589844 151.496094 209.589844 L 149.722656 209.589844 L 149.722656 215.34375 L 151.566406 215.34375 C 152.246094 215.34375 152.824219 215.085938 153.304688 214.578125 C 153.78125 214.066406 154.019531 213.367188 154.019531 212.476562 Z M 155.523438 212.464844 C 155.523438 213.09375 155.425781 213.660156 155.222656 214.167969 C 155.019531 214.675781 154.75 215.113281 154.410156 215.472656 C 154.070312 215.835938 153.671875 216.121094 153.21875 216.320312 C 152.765625 216.523438 152.289062 216.621094 151.785156 216.621094 L 149.722656 216.621094 L 149.722656 223.730469 L 148.21875 223.730469 L 148.21875 208.308594 L 151.714844 208.308594 C 152.230469 208.308594 152.722656 208.402344 153.183594 208.597656 C 153.644531 208.792969 154.046875 209.070312 154.394531 209.429688 C 154.742188 209.792969 155.019531 210.234375 155.222656 210.75 C 155.425781 211.265625 155.523438 211.835938 155.523438 212.464844 " fill-opacity="1" fill-rule="nonzero"/><path fill="#3f4040" d="M 167.882812 215.980469 C 167.882812 214.996094 167.75 214.101562 167.492188 213.292969 C 167.234375 212.488281 166.886719 211.792969 166.449219 211.210938 C 166.011719 210.628906 165.503906 210.179688 164.921875 209.855469 C 164.339844 209.53125 163.722656 209.371094 163.074219 209.371094 C 162.425781 209.371094 161.816406 209.53125 161.242188 209.855469 C 160.667969 210.179688 160.160156 210.628906 159.726562 211.210938 C 159.289062 211.792969 158.941406 212.488281 158.679688 213.292969 C 158.421875 214.101562 158.292969 214.996094 158.292969 215.980469 C 158.292969 216.96875 158.421875 217.867188 158.679688 218.683594 C 158.941406 219.496094 159.289062 220.195312 159.726562 220.777344 C 160.160156 221.359375 160.667969 221.808594 161.242188 222.132812 C 161.816406 222.457031 162.425781 222.617188 163.074219 222.617188 C 163.722656 222.617188 164.339844 222.457031 164.921875 222.132812 C 165.503906 221.808594 166.011719 221.359375 166.449219 220.777344 C 166.886719 220.195312 167.234375 219.496094 167.492188 218.683594 C 167.75 217.867188 167.882812 216.96875 167.882812 215.980469 Z M 169.410156 215.996094 C 169.410156 217.171875 169.246094 218.25 168.914062 219.234375 C 168.582031 220.21875 168.132812 221.054688 167.566406 221.746094 C 167 222.441406 166.328125 222.980469 165.550781 223.367188 C 164.773438 223.753906 163.949219 223.945312 163.074219 223.945312 C 162.199219 223.945312 161.378906 223.753906 160.609375 223.367188 C 159.839844 222.980469 159.171875 222.441406 158.597656 221.746094 C 158.019531 221.054688 157.570312 220.21875 157.25 219.234375 C 156.925781 218.25 156.761719 217.171875 156.761719 215.996094 C 156.761719 214.820312 156.925781 213.746094 157.25 212.78125 C 157.570312 211.8125 158.019531 210.984375 158.597656 210.289062 C 159.171875 209.597656 159.839844 209.054688 160.609375 208.671875 C 161.378906 208.285156 162.199219 208.089844 163.074219 208.089844 C 163.949219 208.089844 164.773438 208.285156 165.550781 208.671875 C 166.328125 209.054688 167 209.597656 167.566406 210.289062 C 168.132812 210.984375 168.582031 211.8125 168.914062 212.78125 C 169.246094 213.746094 169.410156 214.820312 169.410156 215.996094 " fill-opacity="1" fill-rule="nonzero"/><path fill="#3f4040" d="M 180.167969 216.019531 C 180.167969 214.917969 180.027344 213.964844 179.753906 213.15625 C 179.476562 212.347656 179.097656 211.679688 178.613281 211.152344 C 178.125 210.628906 177.550781 210.234375 176.886719 209.976562 C 176.226562 209.71875 175.503906 209.589844 174.726562 209.589844 L 173.148438 209.589844 L 173.148438 222.449219 L 174.726562 222.449219 C 175.503906 222.449219 176.226562 222.320312 176.886719 222.058594 C 177.550781 221.800781 178.125 221.410156 178.613281 220.882812 C 179.097656 220.359375 179.476562 219.691406 179.753906 218.882812 C 180.027344 218.074219 180.167969 217.117188 180.167969 216.019531 Z M 181.71875 216.019531 C 181.71875 217.324219 181.542969 218.460938 181.183594 219.425781 C 180.828125 220.394531 180.339844 221.195312 179.714844 221.832031 C 179.09375 222.46875 178.367188 222.945312 177.542969 223.257812 C 176.71875 223.574219 175.835938 223.730469 174.898438 223.730469 L 171.644531 223.730469 L 171.644531 208.308594 L 174.898438 208.308594 C 175.835938 208.308594 176.71875 208.464844 177.542969 208.777344 C 178.367188 209.09375 179.09375 209.570312 179.714844 210.207031 C 180.339844 210.84375 180.828125 211.644531 181.183594 212.609375 C 181.542969 213.578125 181.71875 214.714844 181.71875 216.019531 " fill-opacity="1" fill-rule="nonzero"/><path fill="#3f4040" d="M 193.324219 211.835938 C 193.046875 211.609375 192.6875 211.410156 192.242188 211.234375 C 191.796875 211.054688 191.246094 210.964844 190.582031 210.964844 C 190.03125 210.964844 189.519531 211.089844 189.050781 211.339844 C 188.582031 211.589844 188.175781 211.9375 187.835938 212.382812 C 187.496094 212.824219 187.234375 213.355469 187.046875 213.976562 C 186.863281 214.597656 186.769531 215.277344 186.769531 216.019531 C 186.769531 216.761719 186.863281 217.441406 187.046875 218.0625 C 187.234375 218.683594 187.496094 219.214844 187.835938 219.65625 C 188.175781 220.101562 188.585938 220.441406 189.0625 220.683594 C 189.539062 220.925781 190.070312 221.046875 190.652344 221.046875 C 191.300781 221.046875 191.863281 220.96875 192.339844 220.816406 C 192.816406 220.664062 193.210938 220.449219 193.519531 220.175781 L 193.273438 223.292969 C 192.953125 223.519531 192.527344 223.699219 192 223.824219 C 191.472656 223.953125 190.847656 224.019531 190.117188 224.019531 C 189.246094 224.019531 188.398438 223.839844 187.582031 223.488281 C 186.765625 223.132812 186.042969 222.617188 185.410156 221.941406 C 184.777344 221.261719 184.277344 220.429688 183.902344 219.4375 C 183.53125 218.449219 183.347656 217.308594 183.347656 216.019531 C 183.347656 214.730469 183.535156 213.585938 183.917969 212.585938 C 184.296875 211.585938 184.796875 210.75 185.421875 210.070312 C 186.042969 209.394531 186.765625 208.882812 187.582031 208.539062 C 188.398438 208.191406 189.246094 208.019531 190.117188 208.019531 C 190.898438 208.019531 191.578125 208.101562 192.160156 208.269531 C 192.742188 208.441406 193.203125 208.636719 193.542969 208.863281 L 193.324219 211.835938 " fill-opacity="1" fill-rule="nonzero"/><path fill="#3f4040" d="M 200.65625 214.785156 C 200.574219 214.5625 200.507812 214.320312 200.449219 214.0625 C 200.390625 213.804688 200.339844 213.535156 200.289062 213.261719 L 200.242188 213.261719 C 200.210938 213.535156 200.160156 213.804688 200.097656 214.0625 C 200.03125 214.320312 199.960938 214.5625 199.878906 214.785156 L 199.054688 217.808594 L 201.503906 217.808594 Z M 203.132812 223.730469 L 202.183594 220.34375 L 198.375 220.34375 L 197.425781 223.730469 L 194.292969 223.730469 L 199.125 208.234375 L 201.625 208.234375 L 206.433594 223.730469 L 203.132812 223.730469 " fill-opacity="1" fill-rule="nonzero"/><path fill="#3f4040" d="M 215.902344 219.402344 C 215.902344 220.820312 215.496094 221.945312 214.6875 222.773438 C 213.878906 223.605469 212.679688 224.019531 211.09375 224.019531 C 210.316406 224.019531 209.621094 223.917969 209.007812 223.71875 C 208.390625 223.515625 207.875 223.246094 207.453125 222.90625 L 207.1875 219.59375 C 207.71875 220.078125 208.285156 220.453125 208.886719 220.71875 C 209.484375 220.984375 210.125 221.117188 210.804688 221.117188 C 211.371094 221.117188 211.796875 220.988281 212.089844 220.734375 C 212.382812 220.476562 212.527344 220.128906 212.527344 219.691406 C 212.527344 219.226562 212.367188 218.78125 212.054688 218.363281 C 211.738281 217.945312 211.253906 217.523438 210.609375 217.105469 C 209.539062 216.414062 208.753906 215.679688 208.253906 214.90625 C 207.753906 214.132812 207.5 213.261719 207.5 212.296875 C 207.5 211.683594 207.601562 211.117188 207.804688 210.589844 C 208.007812 210.070312 208.296875 209.613281 208.679688 209.226562 C 209.058594 208.839844 209.523438 208.539062 210.074219 208.320312 C 210.625 208.101562 211.246094 207.992188 211.945312 207.992188 C 212.707031 207.992188 213.328125 208.082031 213.8125 208.257812 C 214.300781 208.4375 214.671875 208.613281 214.929688 208.792969 L 214.710938 211.691406 C 214.4375 211.484375 214.085938 211.292969 213.65625 211.125 C 213.226562 210.953125 212.777344 210.871094 212.308594 210.871094 C 211.789062 210.871094 211.40625 210.980469 211.15625 211.195312 C 210.902344 211.414062 210.777344 211.707031 210.777344 212.078125 C 210.777344 212.464844 210.90625 212.820312 211.167969 213.140625 C 211.425781 213.464844 211.902344 213.859375 212.601562 214.328125 C 213.585938 214.988281 214.382812 215.730469 214.992188 216.5625 C 215.597656 217.390625 215.902344 218.339844 215.902344 219.402344 " fill-opacity="1" fill-rule="nonzero"/><g clip-path="url(#id4)"><path fill="#3f4040" d="M 223.671875 211.039062 L 223.671875 223.730469 L 220.320312 223.730469 L 220.320312 211.015625 L 216.652344 211.015625 L 216.652344 208.308594 L 227.3125 208.308594 L 227.3125 211.039062 L 223.671875 211.039062 " fill-opacity="1" fill-rule="nonzero"/></g><path fill="#3f4040" d="M 226.878906 234.078125 L 226.546875 234.078125 L 226.546875 233.835938 L 226.878906 233.835938 L 226.878906 234.078125 " fill-opacity="1" fill-rule="nonzero"/><path fill="#3f4040" d="M 225.882812 234.128906 L 225.546875 234.128906 L 225.546875 233.789062 L 225.882812 233.789062 L 225.882812 234.128906 " fill-opacity="1" fill-rule="nonzero"/><path fill="#3f4040" d="M 224.882812 234.199219 L 224.546875 234.199219 L 224.546875 233.71875 L 224.882812 233.71875 L 224.882812 234.199219 " fill-opacity="1" fill-rule="nonzero"/><path fill="#3f4040" d="M 223.882812 234.296875 L 223.550781 234.296875 L 223.550781 233.617188 L 223.882812 233.617188 L 223.882812 234.296875 " fill-opacity="1" fill-rule="nonzero"/><path fill="#3f4040" d="M 222.886719 234.433594 L 222.550781 234.433594 L 222.550781 233.480469 L 222.886719 233.480469 L 222.886719 234.433594 " fill-opacity="1" fill-rule="nonzero"/><path fill="#3f4040" d="M 221.886719 234.628906 L 221.550781 234.628906 L 221.550781 233.285156 L 221.886719 233.285156 L 221.886719 234.628906 " fill-opacity="1" fill-rule="nonzero"/><path fill="#3f4040" d="M 220.886719 234.902344 L 220.554688 234.902344 L 220.554688 233.011719 L 220.886719 233.011719 L 220.886719 234.902344 " fill-opacity="1" fill-rule="nonzero"/><path fill="#3f4040" d="M 219.890625 235.292969 L 219.554688 235.292969 L 219.554688 232.625 L 219.890625 232.625 L 219.890625 235.292969 " fill-opacity="1" fill-rule="nonzero"/><path fill="#3f4040" d="M 218.890625 235.835938 L 218.554688 235.835938 L 218.554688 232.078125 L 218.890625 232.078125 L 218.890625 235.835938 " fill-opacity="1" fill-rule="nonzero"/><path fill="#3f4040" d="M 217.890625 236.601562 L 217.558594 236.601562 L 217.558594 231.3125 L 217.890625 231.3125 L 217.890625 236.601562 " fill-opacity="1" fill-rule="nonzero"/><path fill="#3f4040" d="M 216.894531 237.683594 L 216.558594 237.683594 L 216.558594 230.230469 L 216.894531 230.230469 L 216.894531 237.683594 " fill-opacity="1" fill-rule="nonzero"/><path fill="#3f4040" d="M 215.894531 236.820312 L 215.558594 236.820312 L 215.558594 231.09375 L 215.894531 231.09375 L 215.894531 236.820312 " fill-opacity="1" fill-rule="nonzero"/><path fill="#3f4040" d="M 214.894531 235.886719 L 214.5625 235.886719 L 214.5625 232.027344 L 214.894531 232.027344 L 214.894531 235.886719 " fill-opacity="1" fill-rule="nonzero"/><path fill="#3f4040" d="M 213.898438 237.023438 L 213.5625 237.023438 L 213.5625 230.890625 L 213.898438 230.890625 L 213.898438 237.023438 " fill-opacity="1" fill-rule="nonzero"/><path fill="#3f4040" d="M 212.898438 238.53125 L 212.5625 238.53125 L 212.5625 229.382812 L 212.898438 229.382812 L 212.898438 238.53125 " fill-opacity="1" fill-rule="nonzero"/><path fill="#3f4040" d="M 211.898438 239.609375 L 211.566406 239.609375 L 211.566406 228.304688 L 211.898438 228.304688 L 211.898438 239.609375 " fill-opacity="1" fill-rule="nonzero"/><path fill="#3f4040" d="M 210.902344 240.335938 L 210.566406 240.335938 L 210.566406 227.578125 L 210.902344 227.578125 L 210.902344 240.335938 " fill-opacity="1" fill-rule="nonzero"/><path fill="#3f4040" d="M 209.902344 238.21875 L 209.566406 238.21875 L 209.566406 229.695312 L 209.902344 229.695312 L 209.902344 238.21875 " fill-opacity="1" fill-rule="nonzero"/><path fill="#3f4040" d="M 208.90625 238.929688 L 208.570312 238.929688 L 208.570312 228.988281 L 208.90625 228.988281 L 208.90625 238.929688 " fill-opacity="1" fill-rule="nonzero"/><path fill="#3f4040" d="M 207.90625 238.085938 L 207.570312 238.085938 L 207.570312 229.828125 L 207.90625 229.828125 L 207.90625 238.085938 " fill-opacity="1" fill-rule="nonzero"/><path fill="#3f4040" d="M 206.90625 237.023438 L 206.570312 237.023438 L 206.570312 230.890625 L 206.90625 230.890625 L 206.90625 237.023438 " fill-opacity="1" fill-rule="nonzero"/><path fill="#3f4040" d="M 205.90625 237.683594 L 205.574219 237.683594 L 205.574219 230.230469 L 205.90625 230.230469 L 205.90625 237.683594 " fill-opacity="1" fill-rule="nonzero"/><path fill="#3f4040" d="M 204.910156 236.65625 L 204.574219 236.65625 L 204.574219 231.257812 L 204.910156 231.257812 L 204.910156 236.65625 " fill-opacity="1" fill-rule="nonzero"/><path fill="#3f4040" d="M 203.910156 235.886719 L 203.574219 235.886719 L 203.574219 232.027344 L 203.910156 232.027344 L 203.910156 235.886719 " fill-opacity="1" fill-rule="nonzero"/><path fill="#3f4040" d="M 202.910156 236.65625 L 202.578125 236.65625 L 202.578125 231.257812 L 202.910156 231.257812 L 202.910156 236.65625 " fill-opacity="1" fill-rule="nonzero"/><path fill="#3f4040" d="M 201.914062 237.878906 L 201.578125 237.878906 L 201.578125 230.035156 L 201.914062 230.035156 L 201.914062 237.878906 " fill-opacity="1" fill-rule="nonzero"/><path fill="#3f4040" d="M 200.914062 238.53125 L 200.582031 238.53125 L 200.582031 229.382812 L 200.914062 229.382812 L 200.914062 238.53125 " fill-opacity="1" fill-rule="nonzero"/><path fill="#3f4040" d="M 199.917969 237.496094 L 199.582031 237.496094 L 199.582031 230.417969 L 199.917969 230.417969 L 199.917969 237.496094 " fill-opacity="1" fill-rule="nonzero"/><path fill="#3f4040" d="M 198.917969 236.117188 L 198.582031 236.117188 L 198.582031 231.800781 L 198.917969 231.800781 L 198.917969 236.117188 " fill-opacity="1" fill-rule="nonzero"/><path fill="#3f4040" d="M 197.917969 235.886719 L 197.582031 235.886719 L 197.582031 232.027344 L 197.917969 232.027344 L 197.917969 235.886719 " fill-opacity="1" fill-rule="nonzero"/><path fill="#3f4040" d="M 196.917969 235.101562 L 196.585938 235.101562 L 196.585938 232.8125 L 196.917969 232.8125 L 196.917969 235.101562 " fill-opacity="1" fill-rule="nonzero"/><path fill="#3f4040" d="M 195.921875 235.613281 L 195.585938 235.613281 L 195.585938 232.300781 L 195.921875 232.300781 L 195.921875 235.613281 " fill-opacity="1" fill-rule="nonzero"/><path fill="#3f4040" d="M 194.921875 236.339844 L 194.589844 236.339844 L 194.589844 231.574219 L 194.921875 231.574219 L 194.921875 236.339844 " fill-opacity="1" fill-rule="nonzero"/><path fill="#3f4040" d="M 193.925781 237.683594 L 193.589844 237.683594 L 193.589844 230.230469 L 193.925781 230.230469 L 193.925781 237.683594 " fill-opacity="1" fill-rule="nonzero"/><path fill="#3f4040" d="M 192.925781 238.53125 L 192.589844 238.53125 L 192.589844 229.382812 L 192.925781 229.382812 L 192.925781 238.53125 " fill-opacity="1" fill-rule="nonzero"/><path fill="#3f4040" d="M 191.925781 239.609375 L 191.59375 239.609375 L 191.59375 228.304688 L 191.925781 228.304688 L 191.925781 239.609375 " fill-opacity="1" fill-rule="nonzero"/><path fill="#3f4040" d="M 190.929688 240.851562 L 190.59375 240.851562 L 190.59375 227.0625 L 190.929688 227.0625 L 190.929688 240.851562 " fill-opacity="1" fill-rule="nonzero"/><g clip-path="url(#id5)"><path fill="#3f4040" d="M 189.929688 242.378906 L 189.59375 242.378906 L 189.59375 225.535156 L 189.929688 225.535156 L 189.929688 242.378906 " fill-opacity="1" fill-rule="nonzero"/></g><path fill="#3f4040" d="M 188.929688 240.652344 L 188.59375 240.652344 L 188.59375 227.261719 L 188.929688 227.261719 L 188.929688 240.652344 " fill-opacity="1" fill-rule="nonzero"/><path fill="#3f4040" d="M 187.929688 241.378906 L 187.597656 241.378906 L 187.597656 226.535156 L 187.929688 226.535156 L 187.929688 241.378906 " fill-opacity="1" fill-rule="nonzero"/><path fill="#3f4040" d="M 186.933594 240.335938 L 186.597656 240.335938 L 186.597656 227.578125 L 186.933594 227.578125 L 186.933594 240.335938 " fill-opacity="1" fill-rule="nonzero"/><path fill="#3f4040" d="M 185.933594 238.929688 L 185.601562 238.929688 L 185.601562 228.988281 L 185.933594 228.988281 L 185.933594 238.929688 " fill-opacity="1" fill-rule="nonzero"/><path fill="#3f4040" d="M 184.9375 239.246094 L 184.601562 239.246094 L 184.601562 228.667969 L 184.9375 228.667969 L 184.9375 239.246094 " fill-opacity="1" fill-rule="nonzero"/><path fill="#3f4040" d="M 183.9375 238.929688 L 183.601562 238.929688 L 183.601562 228.988281 L 183.9375 228.988281 L 183.9375 238.929688 " fill-opacity="1" fill-rule="nonzero"/><path fill="#3f4040" d="M 182.9375 239.835938 L 182.605469 239.835938 L 182.605469 228.078125 L 182.9375 228.078125 L 182.9375 239.835938 " fill-opacity="1" fill-rule="nonzero"/><path fill="#3f4040" d="M 181.941406 238.085938 L 181.605469 238.085938 L 181.605469 229.828125 L 181.941406 229.828125 L 181.941406 238.085938 " fill-opacity="1" fill-rule="nonzero"/><path fill="#3f4040" d="M 180.941406 239.246094 L 180.605469 239.246094 L 180.605469 228.667969 L 180.941406 228.667969 L 180.941406 239.246094 " fill-opacity="1" fill-rule="nonzero"/><path fill="#3f4040" d="M 179.941406 238.929688 L 179.605469 238.929688 L 179.605469 228.988281 L 179.941406 228.988281 L 179.941406 238.929688 " fill-opacity="1" fill-rule="nonzero"/><path fill="#3f4040" d="M 178.941406 239.835938 L 178.609375 239.835938 L 178.609375 228.078125 L 178.941406 228.078125 L 178.941406 239.835938 " fill-opacity="1" fill-rule="nonzero"/><path fill="#3f4040" d="M 177.945312 240.652344 L 177.609375 240.652344 L 177.609375 227.261719 L 177.945312 227.261719 L 177.945312 240.652344 " fill-opacity="1" fill-rule="nonzero"/><path fill="#3f4040" d="M 176.945312 239.246094 L 176.613281 239.246094 L 176.613281 228.667969 L 176.945312 228.667969 L 176.945312 239.246094 " fill-opacity="1" fill-rule="nonzero"/><path fill="#3f4040" d="M 175.949219 238.304688 L 175.613281 238.304688 L 175.613281 229.613281 L 175.949219 229.613281 L 175.949219 238.304688 " fill-opacity="1" fill-rule="nonzero"/><path fill="#3f4040" d="M 174.949219 237.496094 L 174.613281 237.496094 L 174.613281 230.417969 L 174.949219 230.417969 L 174.949219 237.496094 " fill-opacity="1" fill-rule="nonzero"/><path fill="#3f4040" d="M 173.949219 237.683594 L 173.617188 237.683594 L 173.617188 230.230469 L 173.949219 230.230469 L 173.949219 237.683594 " fill-opacity="1" fill-rule="nonzero"/><path fill="#3f4040" d="M 172.953125 237.878906 L 172.617188 237.878906 L 172.617188 230.035156 L 172.953125 230.035156 L 172.953125 237.878906 " fill-opacity="1" fill-rule="nonzero"/><path fill="#3f4040" d="M 171.953125 237.023438 L 171.617188 237.023438 L 171.617188 230.890625 L 171.953125 230.890625 L 171.953125 237.023438 " fill-opacity="1" fill-rule="nonzero"/><path fill="#3f4040" d="M 170.953125 237.496094 L 170.621094 237.496094 L 170.621094 230.417969 L 170.953125 230.417969 L 170.953125 237.496094 " fill-opacity="1" fill-rule="nonzero"/><path fill="#3f4040" d="M 169.957031 238.53125 L 169.621094 238.53125 L 169.621094 229.382812 L 169.957031 229.382812 L 169.957031 238.53125 " fill-opacity="1" fill-rule="nonzero"/><path fill="#3f4040" d="M 168.957031 239.246094 L 168.621094 239.246094 L 168.621094 228.667969 L 168.957031 228.667969 L 168.957031 239.246094 " fill-opacity="1" fill-rule="nonzero"/><path fill="#3f4040" d="M 167.957031 238.085938 L 167.625 238.085938 L 167.625 229.828125 L 167.957031 229.828125 L 167.957031 238.085938 " fill-opacity="1" fill-rule="nonzero"/><path fill="#3f4040" d="M 166.960938 239.390625 L 166.625 239.390625 L 166.625 228.523438 L 166.960938 228.523438 L 166.960938 239.390625 " fill-opacity="1" fill-rule="nonzero"/><path fill="#3f4040" d="M 165.960938 241.378906 L 165.625 241.378906 L 165.625 226.535156 L 165.960938 226.535156 L 165.960938 241.378906 " fill-opacity="1" fill-rule="nonzero"/><path fill="#3f4040" d="M 164.960938 240.292969 L 164.628906 240.292969 L 164.628906 227.621094 L 164.960938 227.621094 L 164.960938 240.292969 " fill-opacity="1" fill-rule="nonzero"/><path fill="#3f4040" d="M 163.964844 240.988281 L 163.628906 240.988281 L 163.628906 226.929688 L 163.964844 226.929688 L 163.964844 240.988281 " fill-opacity="1" fill-rule="nonzero"/><path fill="#3f4040" d="M 162.964844 239.117188 L 162.628906 239.117188 L 162.628906 228.796875 L 162.964844 228.796875 L 162.964844 239.117188 " fill-opacity="1" fill-rule="nonzero"/><path fill="#3f4040" d="M 161.964844 239.390625 L 161.632812 239.390625 L 161.632812 228.523438 L 161.964844 228.523438 L 161.964844 239.390625 " fill-opacity="1" fill-rule="nonzero"/><path fill="#3f4040" d="M 160.96875 239.117188 L 160.632812 239.117188 L 160.632812 228.796875 L 160.96875 228.796875 L 160.96875 239.117188 " fill-opacity="1" fill-rule="nonzero"/><path fill="#3f4040" d="M 159.96875 239.976562 L 159.632812 239.976562 L 159.632812 227.9375 L 159.96875 227.9375 L 159.96875 239.976562 " fill-opacity="1" fill-rule="nonzero"/><path fill="#3f4040" d="M 148.984375 234.164062 L 148.648438 234.164062 L 148.648438 233.75 L 148.984375 233.75 L 148.984375 234.164062 " fill-opacity="1" fill-rule="nonzero"/><path fill="#3f4040" d="M 149.980469 234.246094 L 149.648438 234.246094 L 149.648438 233.667969 L 149.980469 233.667969 L 149.980469 234.246094 " fill-opacity="1" fill-rule="nonzero"/><path fill="#3f4040" d="M 150.980469 234.367188 L 150.644531 234.367188 L 150.644531 233.546875 L 150.980469 233.546875 L 150.980469 234.367188 " fill-opacity="1" fill-rule="nonzero"/><path fill="#3f4040" d="M 151.980469 234.535156 L 151.644531 234.535156 L 151.644531 233.382812 L 151.980469 233.382812 L 151.980469 234.535156 " fill-opacity="1" fill-rule="nonzero"/><path fill="#3f4040" d="M 152.976562 234.769531 L 152.644531 234.769531 L 152.644531 233.144531 L 152.976562 233.144531 L 152.976562 234.769531 " fill-opacity="1" fill-rule="nonzero"/><path fill="#3f4040" d="M 153.976562 235.101562 L 153.640625 235.101562 L 153.640625 232.8125 L 153.976562 232.8125 L 153.976562 235.101562 " fill-opacity="1" fill-rule="nonzero"/><path fill="#3f4040" d="M 154.976562 235.566406 L 154.640625 235.566406 L 154.640625 232.347656 L 154.976562 232.347656 L 154.976562 235.566406 " fill-opacity="1" fill-rule="nonzero"/><path fill="#3f4040" d="M 155.972656 236.226562 L 155.640625 236.226562 L 155.640625 231.691406 L 155.972656 231.691406 L 155.972656 236.226562 " fill-opacity="1" fill-rule="nonzero"/><path fill="#3f4040" d="M 156.972656 237.152344 L 156.636719 237.152344 L 156.636719 230.765625 L 156.972656 230.765625 L 156.972656 237.152344 " fill-opacity="1" fill-rule="nonzero"/><path fill="#3f4040" d="M 157.972656 238.457031 L 157.636719 238.457031 L 157.636719 229.457031 L 157.972656 229.457031 L 157.972656 238.457031 " fill-opacity="1" fill-rule="nonzero"/><path fill="#3f4040" d="M 158.96875 240.292969 L 158.636719 240.292969 L 158.636719 227.621094 L 158.96875 227.621094 L 158.96875 240.292969 " fill-opacity="1" fill-rule="nonzero"/></svg>